<svg width="147" height="147" viewBox="0 0 147 147" fill="none" xmlns="http://www.w3.org/2000/svg">
<path d="M119.217 75.4162C134.282 75.4162 147 62.8057 147 47.6857C147 32.4555 134.445 19.9552 119.217 19.9552C104.042 19.9552 91.4865 32.4555 91.4865 47.6857C91.4865 62.916 104.042 75.4162 119.217 75.4162ZM44.3783 110.295H108.082C110.208 110.295 112.064 108.549 112.064 106.2C112.064 103.855 110.208 102.107 108.082 102.107H45.3075C42.1943 102.107 40.3384 99.9232 39.795 96.5947L38.9209 90.8643H108.189C113.867 90.8643 117.579 88.4073 119.49 84.0393L119.926 82.8922C99.729 82.8397 84.0079 67.2813 84.0079 47.6857C84.0079 46.0477 84.1172 44.4097 84.336 42.7717H31.9331L30.8963 35.8417C30.24 31.6365 28.8225 29.5076 23.2549 29.5076H4.03988C1.85588 29.5076 0 31.4186 0 33.6026C0 35.8391 1.85588 37.7501 4.03988 37.7501H22.4884L31.2244 97.6867C32.3689 105.438 36.4639 110.297 44.3783 110.297M119.27 65.7011C117.361 65.7011 115.668 64.3912 115.668 62.3148V51.0168H105.242C104.36 51.0127 103.516 50.6607 102.892 50.0374C102.269 49.414 101.917 48.5698 101.913 47.6883C101.913 45.8325 103.386 44.3021 105.242 44.3021H115.668V33.0041C115.668 30.9303 117.361 29.6756 119.272 29.6756C121.181 29.6756 122.816 30.9303 122.816 33.0041V44.3047H133.245C135.101 44.3047 136.631 45.8325 136.631 47.6883C136.631 49.4891 135.101 51.0168 133.245 51.0168H122.818V62.3175C122.818 64.3912 121.181 65.7037 119.272 65.7037M39.8475 127.982C39.8338 129.147 40.0531 130.303 40.4927 131.382C40.9323 132.461 41.5832 133.442 42.4071 134.266C43.2311 135.09 44.2115 135.741 45.2906 136.18C46.3698 136.62 47.526 136.839 48.6911 136.825C49.8555 136.836 51.0103 136.614 52.088 136.173C53.1657 135.732 54.1448 135.08 54.9681 134.257C55.7914 133.433 56.4423 132.454 56.883 131.376C57.3237 130.298 57.5452 129.144 57.5347 127.979C57.5393 126.816 57.3135 125.664 56.8705 124.589C56.4274 123.514 55.7759 122.538 54.9535 121.716C54.1311 120.894 53.154 120.243 52.0788 119.8C51.0035 119.358 49.8512 119.133 48.6885 119.138C47.5245 119.128 46.3703 119.35 45.293 119.791C44.2158 120.232 43.2371 120.884 42.4142 121.707C41.5912 122.53 40.9404 123.509 40.4998 124.586C40.0591 125.664 39.8374 126.818 39.8475 127.982ZM90.8303 127.982C90.8303 132.948 94.815 136.825 99.7815 136.825C100.946 136.836 102.101 136.614 103.179 136.173C104.257 135.733 105.237 135.081 106.06 134.258C106.884 133.434 107.535 132.455 107.976 131.377C108.417 130.299 108.638 129.144 108.628 127.979C108.632 126.816 108.407 125.664 107.963 124.589C107.52 123.514 106.869 122.538 106.046 121.716C105.224 120.894 104.247 120.243 103.172 119.8C102.096 119.358 100.944 119.133 99.7815 119.138C94.815 119.138 90.8303 123.068 90.8303 127.982Z" fill="#3F2A2B"/>
</svg>
