<svg width="492" height="78" viewBox="0 0 492 78" fill="none" xmlns="http://www.w3.org/2000/svg">
<path d="M1.5 60C2.78 58.96 4.08 57.5 5.4 55.62C6.76 53.74 8.14 51.46 9.54 48.78L22.8 24.18C23.6 22.5 24 21.4 24 20.88C24 19.6 23.62 18.64 22.86 18H42L58.5 48.78C59.9 51.46 61.26 53.74 62.58 55.62C63.94 57.5 65.26 58.96 66.54 60H45C45.76 59.48 46.14 58.48 46.14 57C46.14 55.76 45.72 54.4 44.88 52.92L43.8 50.94L23.1 52.92C22.3 54.6 21.9 55.96 21.9 57C21.9 58.48 22.28 59.48 23.04 60H1.5ZM27.6 44.7L39.84 43.56L33.96 32.7L27.6 44.7ZM69.5273 60C70.4473 59.44 71.1873 58.64 71.7473 57.6C72.3073 56.56 72.5873 55.44 72.5873 54.24V23.7C72.5873 22.54 72.3073 21.46 71.7473 20.46C71.2273 19.46 70.4873 18.68 69.5273 18.12H104.687C108.007 18.12 111.007 18.56 113.687 19.44C116.367 20.28 118.487 21.7 120.047 23.7C121.607 25.7 122.387 28.38 122.387 31.74C122.387 34.78 121.647 37.46 120.167 39.78C118.687 42.06 116.627 43.86 113.987 45.18C111.387 46.46 108.367 47.1 104.927 47.1H89.5073V54.6C89.5073 55.68 89.7673 56.72 90.2873 57.72C90.8473 58.68 91.6073 59.44 92.5673 60H69.5273ZM89.5073 38.52H98.3273C100.087 38.52 101.467 38.22 102.467 37.62C103.467 37.02 104.167 36.26 104.567 35.34C104.967 34.38 105.167 33.42 105.167 32.46C105.167 30.3 104.467 28.84 103.067 28.08C101.707 27.28 100.027 26.88 98.0273 26.88H89.5073V38.52ZM124.723 60C126.723 58.72 127.723 56.9 127.723 54.54V23.7C127.723 22.58 127.463 21.5 126.943 20.46C126.423 19.42 125.683 18.6 124.723 18H171.343V30.6C170.023 28.92 168.123 28.08 165.643 28.08H144.703V34.14H166.543V43.08H144.703V49.98H164.083C165.923 49.98 167.543 49.76 168.943 49.32C170.343 48.84 171.383 47.8 172.063 46.2V60H124.723ZM236.922 60H208.062C208.982 59.16 209.342 58.16 209.142 57C208.942 55.84 208.442 54.82 207.642 53.94L202.722 48.24L196.662 54.9C195.982 55.66 195.642 56.56 195.642 57.6C195.682 58.64 196.142 59.44 197.022 60H174.942C176.422 59.32 177.722 58.58 178.842 57.78C180.002 56.98 181.002 56.08 181.842 55.08L195.222 39.6L181.182 23.22C180.262 22.14 179.282 21.16 178.242 20.28C177.202 19.4 176.042 18.64 174.762 18H203.322C202.442 18.64 202.022 19.5 202.062 20.58C202.142 21.62 202.442 22.48 202.962 23.16L208.002 29.04L213.402 22.98C213.962 22.3 214.242 21.44 214.242 20.4C214.242 19.32 213.782 18.52 212.862 18H235.242C234.002 18.32 232.742 18.88 231.462 19.68C230.182 20.44 228.962 21.48 227.802 22.8L215.202 37.44L227.622 51.84C229.022 53.44 230.462 55 231.942 56.52C233.422 58.04 235.082 59.2 236.922 60ZM301.058 61.44C296.938 61.44 292.998 61.06 289.238 60.3C285.478 59.58 282.138 58.38 279.218 56.7C276.338 55.02 274.058 52.8 272.378 50.04C270.698 47.28 269.858 43.86 269.858 39.78C269.858 37.58 270.158 35.4 270.758 33.24C271.398 31.04 272.418 28.96 273.818 27C275.258 25.04 277.198 23.3 279.638 21.78C282.118 20.26 285.198 19.06 288.878 18.18C292.558 17.3 296.958 16.86 302.078 16.86C309.038 16.86 315.358 17.92 321.038 20.04V33.6C318.038 31.44 315.058 29.94 312.098 29.1C309.178 28.22 306.278 27.78 303.398 27.78C300.878 27.78 298.538 28.12 296.378 28.8C294.218 29.48 292.478 30.58 291.158 32.1C289.878 33.62 289.238 35.68 289.238 38.28C289.238 40.4 289.718 42.36 290.678 44.16C291.638 45.96 293.278 47.42 295.598 48.54C297.918 49.62 301.098 50.16 305.138 50.16C308.218 50.16 311.178 49.68 314.018 48.72C316.858 47.76 319.438 46.34 321.758 44.46V57.48C318.878 59 315.738 60.04 312.338 60.6C308.978 61.16 305.218 61.44 301.058 61.44ZM354.947 61.44C350.507 61.44 346.427 61.14 342.707 60.54C338.987 59.94 335.767 58.86 333.047 57.3C330.367 55.74 328.267 53.54 326.747 50.7C325.267 47.86 324.527 44.2 324.527 39.72C324.527 35.32 325.207 31.66 326.567 28.74C327.967 25.82 329.947 23.52 332.507 21.84C335.107 20.12 338.187 18.9 341.747 18.18C345.347 17.42 349.327 17.04 353.687 17.04C357.767 17.04 361.547 17.44 365.027 18.24C368.507 19 371.547 20.24 374.147 21.96C376.747 23.68 378.767 25.98 380.207 28.86C381.687 31.7 382.427 35.2 382.427 39.36C382.427 43.36 381.727 46.76 380.327 49.56C378.927 52.36 376.987 54.64 374.507 56.4C372.027 58.12 369.107 59.38 365.747 60.18C362.427 61.02 358.827 61.44 354.947 61.44ZM353.447 52.32C355.567 52.32 357.267 51.98 358.547 51.3C359.827 50.62 360.787 49.68 361.427 48.48C362.107 47.24 362.547 45.82 362.747 44.22C362.987 42.62 363.107 40.9 363.107 39.06C363.107 35.02 362.407 31.84 361.007 29.52C359.647 27.2 357.167 26.04 353.567 26.04C351.487 26.04 349.807 26.42 348.527 27.18C347.247 27.9 346.267 28.9 345.587 30.18C344.907 31.46 344.427 32.9 344.147 34.5C343.907 36.1 343.787 37.78 343.787 39.54C343.787 43.94 344.487 47.18 345.887 49.26C347.287 51.3 349.807 52.32 353.447 52.32ZM353.327 46.74L348.047 39.72L353.327 32.76L358.727 39.78L353.327 46.74ZM383.064 60C385.064 58.8 386.064 56.98 386.064 54.54V23.58C386.064 20.98 385.044 19.12 383.004 18H418.464C420.544 18 422.564 18.22 424.524 18.66C426.484 19.06 428.224 19.72 429.744 20.64C431.304 21.52 432.544 22.7 433.464 24.18C434.384 25.66 434.844 27.46 434.844 29.58C434.844 32.02 434.184 34.12 432.864 35.88C431.584 37.64 429.784 39.08 427.464 40.2C430.544 41.08 432.784 42.6 434.184 44.76C434.944 45.88 435.524 47.32 435.924 49.08C436.324 50.8 436.524 52.86 436.524 55.26C436.524 57.42 437.564 59 439.644 60H417.564C418.964 59.28 419.664 58 419.664 56.16C419.664 52.96 419.004 50.58 417.684 49.02C416.364 47.46 414.144 46.68 411.024 46.68H403.044V54.54C403.044 56.98 404.044 58.8 406.044 60H383.064ZM403.044 37.2H413.304C415.024 37.2 416.504 36.76 417.744 35.88C419.024 35 419.664 33.64 419.664 31.8C419.664 30.2 419.124 28.98 418.044 28.14C416.964 27.3 415.484 26.88 413.604 26.88H403.044V37.2ZM442.477 60C444.477 58.72 445.477 56.9 445.477 54.54V23.7C445.477 22.58 445.217 21.5 444.697 20.46C444.177 19.42 443.437 18.6 442.477 18H489.097V30.6C487.777 28.92 485.877 28.08 483.397 28.08H462.457V34.14H484.297V43.08H462.457V49.98H481.837C483.677 49.98 485.297 49.76 486.697 49.32C488.097 48.84 489.137 47.8 489.817 46.2V60H442.477Z" fill="black" fill-opacity="0.98"/>
</svg>
