<svg width="171" height="171" viewBox="0 0 171 171" fill="none" xmlns="http://www.w3.org/2000/svg">
<path d="M0 7.125H33.9435L37.8266 21.375H166.632L140.512 99.75H55.4325L51.87 114H156.75V128.25H33.63L42.5078 92.7034L23.0565 21.375H0V7.125ZM28.5 149.625C28.5 145.846 30.0013 142.221 32.6737 139.549C35.3461 136.876 38.9707 135.375 42.75 135.375C46.5293 135.375 50.1539 136.876 52.8263 139.549C55.4987 142.221 57 145.846 57 149.625C57 153.404 55.4987 157.029 52.8263 159.701C50.1539 162.374 46.5293 163.875 42.75 163.875C38.9707 163.875 35.3461 162.374 32.6737 159.701C30.0013 157.029 28.5 153.404 28.5 149.625ZM128.25 149.625C128.25 145.846 129.751 142.221 132.424 139.549C135.096 136.876 138.721 135.375 142.5 135.375C146.279 135.375 149.904 136.876 152.576 139.549C155.249 142.221 156.75 145.846 156.75 149.625C156.75 153.404 155.249 157.029 152.576 159.701C149.904 162.374 146.279 163.875 142.5 163.875C138.721 163.875 135.096 162.374 132.424 159.701C129.751 157.029 128.25 153.404 128.25 149.625Z" fill="white"/>
</svg>
