<svg width="139" height="139" viewBox="0 0 139 139" fill="none" xmlns="http://www.w3.org/2000/svg">
<path d="M112.729 71.312C127.128 71.312 139 59.492 139 45.0906C139 30.6892 127.128 18.8693 112.729 18.8693C98.3797 18.8693 86.5076 30.6892 86.5076 45.0906C86.5076 59.492 98.3797 71.312 112.729 71.312ZM41.9631 104.292H102.2C104.21 104.292 105.965 102.642 105.965 100.42C105.965 98.2035 104.21 96.5504 102.2 96.5504H42.8418C39.898 96.5504 38.1431 94.4853 37.6293 91.3379L36.8027 85.9194H102.302C107.67 85.9194 111.18 83.5961 112.987 79.4658L113.399 78.3811C94.3016 78.3315 79.436 63.6198 79.436 45.0906C79.436 43.5418 79.5394 41.9929 79.7463 40.444H30.1953L29.2148 33.8912C28.5943 29.9148 27.2539 27.9018 21.9893 27.9018H3.82002C1.75488 27.9018 0 29.7088 0 31.7739C0 33.8887 1.75488 35.6957 3.82002 35.6957H21.2645L29.5251 92.3705C30.6073 99.7002 34.4794 104.295 41.9631 104.295M99.5141 48.2405C97.7592 48.2405 96.3121 46.7437 96.3121 45.0931C96.3121 43.3904 97.7592 41.9457 99.5141 41.9457H126.046C127.748 41.9457 129.193 43.3904 129.193 45.0931C129.193 46.7437 127.748 48.2405 126.046 48.2405H99.5141ZM37.6789 121.014C37.6656 122.116 37.8728 123.21 38.2883 124.231C38.7038 125.251 39.3192 126.179 40.0984 126.958C40.8775 127.737 41.8047 128.353 42.8253 128.769C43.8459 129.185 44.9393 129.392 46.0413 129.379C47.1423 129.389 48.2342 129.179 49.2533 128.762C50.2724 128.345 51.1982 127.729 51.9766 126.95C52.7551 126.172 53.3706 125.246 53.7873 124.227C54.204 123.207 54.4135 122.115 54.4036 121.014C54.4079 119.915 54.1944 118.826 53.7755 117.809C53.3566 116.793 52.7405 115.869 51.9628 115.092C51.1852 114.315 50.2613 113.699 49.2445 113.281C48.2278 112.862 47.1382 112.65 46.0388 112.655C44.9382 112.645 43.8467 112.855 42.8281 113.272C41.8095 113.689 40.8841 114.305 40.1059 115.083C39.3278 115.862 38.7124 116.787 38.2957 117.806C37.879 118.825 37.6693 119.914 37.6789 121.014ZM85.8871 121.017C85.8871 125.716 89.655 129.382 94.3512 129.382C95.4525 129.392 96.5447 129.182 97.564 128.765C98.5834 128.348 99.5095 127.733 100.288 126.954C101.067 126.175 101.683 125.249 102.1 124.23C102.516 123.21 102.726 122.118 102.716 121.017C102.72 119.917 102.507 118.828 102.088 117.812C101.669 116.795 101.053 115.871 100.275 115.094C99.4976 114.317 98.5737 113.702 97.557 113.283C96.5402 112.865 95.4507 112.652 94.3512 112.657C89.655 112.657 85.8871 116.37 85.8871 121.017Z" fill="white"/>
</svg>
