<svg width="116" height="102" viewBox="0 0 116 102" fill="none" xmlns="http://www.w3.org/2000/svg">
<rect width="116" height="102" rx="23" fill="black"/>
<path d="M83.2441 59.4153C82.3954 58.8278 74.9016 51.5716 70.6582 48.1896C70.6401 48.1737 70.6401 48.1737 70.6401 48.1578V32.5339C70.6401 28.6597 67.0467 25.5 62.6407 25.5H36.4396C32.3406 25.5 29 28.4533 29 32.0417V68.688C29 72.5623 32.5934 75.722 36.9994 75.722H44.6196H46.5517C46.8767 75.722 47.1476 75.4679 47.1115 75.1821L46.6961 72.07C46.66 71.816 46.4253 71.6413 46.1364 71.6413H45.4321H44.9988C44.6918 71.6413 44.439 71.419 44.439 71.1491V29.5171C44.439 29.2472 44.6918 29.0249 44.9988 29.0249H62.6949C64.4826 29.0249 65.9452 30.311 65.9452 31.8829V65.8935V69.2438C65.9452 70.3235 65.0965 71.2444 63.9589 71.5302C63.9408 71.5302 63.9408 71.5302 63.9228 71.5302C61.9907 70.6093 59.7154 66.6715 59.3724 66.0523C59.3362 66.0047 59.3182 65.9412 59.3182 65.8935C59.1918 64.8932 57.9097 55.2077 52.0411 55.2077C51.8786 55.2077 51.7161 55.2077 51.5535 55.2235C51.5535 55.2235 46.8587 55.5728 50.741 67.3384C50.741 67.3702 50.759 67.386 50.759 67.4178L52.4745 80.4536C52.4745 80.4695 52.4745 80.4854 52.4925 80.5171C52.637 81.0093 54.5872 87.6622 59.6252 92.378C59.7154 92.4732 59.7696 92.5844 59.7696 92.7114V93.8387C59.7696 93.8705 59.7516 93.8864 59.7154 93.8864H59.264C58.1625 93.8864 57.2597 94.6803 57.2597 95.6488V100.238C57.2597 101.206 58.1625 102 59.264 102H80.5174C81.6189 102 82.5218 101.206 82.5218 100.238V95.6806C82.5218 94.712 81.6189 93.9181 80.5174 93.9181C80.4813 93.9181 80.4633 93.9022 80.4633 93.8705C81.1675 88.1227 83.6955 68.4657 85.0498 66.9256C85.0859 66.878 85.122 66.8303 85.1401 66.7668C85.3748 66.0523 86.5486 61.6859 83.2441 59.4153ZM37.3605 71.1809C37.3605 71.4349 37.1258 71.6255 36.8549 71.6255C35.0853 71.6255 33.6407 70.3552 33.6407 68.7992V31.8512C33.6407 30.2951 35.0853 29.0249 36.8549 29.0249C37.1438 29.0249 37.3605 29.2313 37.3605 29.4695V71.1809Z" fill="white"/>
</svg>
