<svg width="75" height="74" viewBox="0 0 75 74" fill="none" xmlns="http://www.w3.org/2000/svg">
<path d="M37.5 0C58.2107 0 75 16.5655 75 37C75 57.4345 58.2107 74 37.5 74C16.7893 74 0 57.4345 0 37C0 16.5655 16.7893 0 37.5 0ZM37.5 20.584C36.9477 20.584 36.5 21.0317 36.5 21.584V36H21.875C21.3227 36 20.875 36.4477 20.875 37C20.875 37.5523 21.3227 38 21.875 38H36.5V52.417C36.5002 52.9691 36.9478 53.417 37.5 53.417C38.0522 53.417 38.4998 52.9691 38.5 52.417V38H53.125C53.6773 38 54.125 37.5523 54.125 37C54.125 36.4477 53.6773 36 53.125 36H38.5V21.584C38.5 21.0317 38.0523 20.584 37.5 20.584Z" fill="#F7F3E3"/>
</svg>
