<svg width="275" height="324" viewBox="0 0 275 324" fill="none" xmlns="http://www.w3.org/2000/svg">
<path d="M64.08 308C64.52 307.733 64.7933 307.413 64.9 307.04C65.02 306.653 65.08 306.153 65.08 305.54V297.78H61.3C60.5267 297.78 59.9267 298.113 59.5 298.78V294H76.3V298.78C75.8733 298.113 75.2667 297.78 74.48 297.78H70.74V305.96C70.74 306.373 70.82 306.767 70.98 307.14C71.14 307.513 71.3933 307.8 71.74 308H64.08ZM77.293 308C77.9596 307.573 78.293 306.967 78.293 306.18V295.9C78.293 295.527 78.2063 295.167 78.033 294.82C77.8596 294.473 77.613 294.2 77.293 294H92.833V298.2C92.393 297.64 91.7596 297.36 90.933 297.36H83.953V299.38H91.233V302.36H83.953V304.66H90.413C91.0263 304.66 91.5663 304.587 92.033 304.44C92.4996 304.28 92.8463 303.933 93.073 303.4V308H77.293ZM114.693 308H105.073C105.379 307.72 105.499 307.387 105.433 307C105.366 306.613 105.199 306.273 104.933 305.98L103.293 304.08L101.273 306.3C101.046 306.553 100.933 306.853 100.933 307.2C100.946 307.547 101.099 307.813 101.393 308H94.0327C94.526 307.773 94.9593 307.527 95.3327 307.26C95.7193 306.993 96.0527 306.693 96.3327 306.36L100.793 301.2L96.1127 295.74C95.806 295.38 95.4793 295.053 95.1327 294.76C94.786 294.467 94.3993 294.213 93.9727 294H103.493C103.199 294.213 103.059 294.5 103.073 294.86C103.099 295.207 103.199 295.493 103.373 295.72L105.053 297.68L106.853 295.66C107.039 295.433 107.133 295.147 107.133 294.8C107.133 294.44 106.979 294.173 106.673 294H114.133C113.719 294.107 113.299 294.293 112.873 294.56C112.446 294.813 112.039 295.16 111.653 295.6L107.453 300.48L111.593 305.28C112.059 305.813 112.539 306.333 113.033 306.84C113.526 307.347 114.079 307.733 114.693 308ZM119.685 308C120.125 307.733 120.399 307.413 120.505 307.04C120.625 306.653 120.685 306.153 120.685 305.54V297.78H116.905C116.132 297.78 115.532 298.113 115.105 298.78V294H131.905V298.78C131.479 298.113 130.872 297.78 130.085 297.78H126.345V305.96C126.345 306.373 126.425 306.767 126.585 307.14C126.745 307.513 126.999 307.8 127.345 308H119.685ZM142.898 308C143.232 307.84 143.485 307.58 143.658 307.22C143.845 306.86 143.938 306.48 143.938 306.08V295.88C143.938 295.507 143.852 295.147 143.678 294.8C143.505 294.453 143.258 294.187 142.938 294H150.058C149.925 294.147 149.812 294.36 149.718 294.64C149.638 294.92 149.598 295.26 149.598 295.66V299.24H155.818V295.66C155.818 295.26 155.778 294.92 155.698 294.64C155.618 294.36 155.505 294.147 155.358 294H162.478C162.158 294.187 161.912 294.453 161.738 294.8C161.565 295.133 161.478 295.487 161.478 295.86V306.08C161.478 306.48 161.565 306.853 161.738 307.2C161.912 307.547 162.158 307.813 162.478 308H155.358C155.505 307.853 155.618 307.64 155.698 307.36C155.778 307.067 155.818 306.713 155.818 306.3V302.1H149.598V306.3C149.598 307.113 149.758 307.68 150.078 308H142.898ZM163.484 308C164.151 307.573 164.484 306.967 164.484 306.18V295.9C164.484 295.527 164.398 295.167 164.224 294.82C164.051 294.473 163.804 294.2 163.484 294H179.024V298.2C178.584 297.64 177.951 297.36 177.124 297.36H170.144V299.38H177.424V302.36H170.144V304.66H176.604C177.218 304.66 177.758 304.587 178.224 304.44C178.691 304.28 179.038 303.933 179.264 303.4V308H163.484ZM180.555 308C181.222 307.6 181.555 306.993 181.555 306.18V295.86C181.555 294.993 181.215 294.373 180.535 294H192.355C193.048 294 193.722 294.073 194.375 294.22C195.028 294.353 195.608 294.573 196.115 294.88C196.635 295.173 197.048 295.567 197.355 296.06C197.662 296.553 197.815 297.153 197.815 297.86C197.815 298.673 197.595 299.373 197.155 299.96C196.728 300.547 196.128 301.027 195.355 301.4C196.382 301.693 197.128 302.2 197.595 302.92C197.848 303.293 198.042 303.773 198.175 304.36C198.308 304.933 198.375 305.62 198.375 306.42C198.375 307.14 198.722 307.667 199.415 308H192.055C192.522 307.76 192.755 307.333 192.755 306.72C192.755 305.653 192.535 304.86 192.095 304.34C191.655 303.82 190.915 303.56 189.875 303.56H187.215V306.18C187.215 306.993 187.548 307.6 188.215 308H180.555ZM187.215 300.4H190.635C191.208 300.4 191.702 300.253 192.115 299.96C192.542 299.667 192.755 299.213 192.755 298.6C192.755 298.067 192.575 297.66 192.215 297.38C191.855 297.1 191.362 296.96 190.735 296.96H187.215V300.4ZM200.359 308C201.026 307.573 201.359 306.967 201.359 306.18V295.9C201.359 295.527 201.273 295.167 201.099 294.82C200.926 294.473 200.679 294.2 200.359 294H215.899V298.2C215.459 297.64 214.826 297.36 213.999 297.36H207.019V299.38H214.299V302.36H207.019V304.66H213.479C214.093 304.66 214.633 304.587 215.099 304.44C215.566 304.28 215.913 303.933 216.139 303.4V308H200.359Z" fill="black"/>
</svg>
